<?xml version="1.0" encoding="UTF-8"?>
<svg width="512" height="512" viewBox="0 0 512 512" fill="none" xmlns="http://www.w3.org/2000/svg">
  <!-- Background gradient -->
  <defs>
    <linearGradient id="bgGradient" x1="0%" y1="0%" x2="100%" y2="100%">
      <stop offset="0%" style="stop-color:#1e3a8a;stop-opacity:1" />
      <stop offset="100%" style="stop-color:#3b82f6;stop-opacity:1" />
    </linearGradient>
    <linearGradient id="terminalGradient" x1="0%" y1="0%" x2="100%" y2="100%">
      <stop offset="0%" style="stop-color:#60a5fa;stop-opacity:1" />
      <stop offset="100%" style="stop-color:#3b82f6;stop-opacity:1" />
    </linearGradient>
    <linearGradient id="connectionGradient" x1="0%" y1="0%" x2="100%" y2="100%">
      <stop offset="0%" style="stop-color:#06b6d4;stop-opacity:1" />
      <stop offset="100%" style="stop-color:#0891b2;stop-opacity:1" />
    </linearGradient>
  </defs>
  
  <!-- Main rounded square background -->
  <rect x="32" y="32" width="448" height="448" rx="80" fill="url(#bgGradient)"/>
  
  <!-- Connection hub nodes (top) -->
  <circle cx="256" cy="80" r="12" fill="url(#connectionGradient)" stroke="#0891b2" stroke-width="2"/>
  <line x1="256" y1="92" x2="256" y2="120" stroke="#0891b2" stroke-width="3" stroke-dasharray="5,5"/>
  
  <!-- Background terminal windows (stacked effect) -->
  
  <!-- Black terminal (furthest back, top-left offset) -->
  <rect x="70" y="120" width="320" height="240" rx="16" fill="#1e293b" stroke="#334155" stroke-width="4" opacity="0.7"/>
  <circle cx="94" cy="145" r="6" fill="#ef4444"/>
  <circle cx="118" cy="145" r="6" fill="#f59e0b"/>
  <circle cx="142" cy="145" r="6" fill="#10b981"/>
  
  <!-- Red terminal (second layer) -->
  <rect x="86" y="136" width="320" height="240" rx="16" fill="#1e293b" stroke="#ef4444" stroke-width="4" opacity="0.8"/>
  <circle cx="110" cy="161" r="6" fill="#ef4444"/>
  <circle cx="134" cy="161" r="6" fill="#f59e0b"/>
  <circle cx="158" cy="161" r="6" fill="#10b981"/>
  
  <!-- Yellow terminal (third layer) -->
  <rect x="102" y="152" width="320" height="240" rx="16" fill="#1e293b" stroke="#fbbf24" stroke-width="4" opacity="0.85"/>
  <circle cx="126" cy="177" r="6" fill="#ef4444"/>
  <circle cx="150" cy="177" r="6" fill="#f59e0b"/>
  <circle cx="174" cy="177" r="6" fill="#10b981"/>
  
  <!-- Green terminal (fourth layer) -->
  <rect x="118" y="168" width="320" height="240" rx="16" fill="#1e293b" stroke="#10b981" stroke-width="4" opacity="0.9"/>
  <circle cx="142" cy="193" r="6" fill="#ef4444"/>
  <circle cx="166" cy="193" r="6" fill="#f59e0b"/>
  <circle cx="190" cy="193" r="6" fill="#10b981"/>
  
  <!-- Main blue terminal window (front, centered) -->
  <rect x="134" y="184" width="320" height="240" rx="16" fill="#1e293b" stroke="url(#terminalGradient)" stroke-width="4"/>
  
  <!-- Terminal header dots -->
  <circle cx="158" cy="209" r="6" fill="#ef4444"/>
  <circle cx="182" cy="209" r="6" fill="#f59e0b"/>
  <circle cx="206" cy="209" r="6" fill="#10b981"/>
  
  <!-- Terminal prompt symbol (>) -->
  <path d="M 158 264 L 203 294 L 158 324" stroke="#60a5fa" stroke-width="8" stroke-linecap="round" stroke-linejoin="round" fill="none"/>
  
  <!-- Terminal command text "cd " -->
  <text x="218" y="315" font-family="monospace" font-size="72" font-weight="bold" fill="#60a5fa" stroke="#60a5fa" stroke-width="2" paint-order="stroke">cd</text>
  
  <!-- Terminal cursor (horizontal underscore style) -->
  <rect x="330" y="320" width="45" height="8" rx="2" fill="#60a5fa">
    <animate attributeName="opacity" values="1;0;1" dur="1.5s" repeatCount="indefinite"/>
  </rect>
  
  <!-- Connection hub nodes (bottom) -->
  <!-- Bottom left node -->
  <circle cx="180" cy="410" r="12" fill="url(#connectionGradient)" stroke="#0891b2" stroke-width="2"/>
  <line x1="200" y1="390" x2="220" y2="370" stroke="#0891b2" stroke-width="3" stroke-dasharray="5,5"/>
  
  <!-- Bottom right node -->
  <circle cx="332" cy="410" r="12" fill="url(#connectionGradient)" stroke="#0891b2" stroke-width="2"/>
  <line x1="312" y1="390" x2="292" y2="370" stroke="#0891b2" stroke-width="3" stroke-dasharray="5,5"/>
  
  <!-- Bottom center node -->
  <circle cx="256" cy="442" r="12" fill="url(#connectionGradient)" stroke="#0891b2" stroke-width="2"/>
  <line x1="256" y1="430" x2="256" y2="370" stroke="#0891b2" stroke-width="3" stroke-dasharray="5,5"/>
</svg>
